# xmcd CD database file
#
# Track frame offsets:
#	150
#	20177
#	40690
#
# Disc length: 773 seconds
#
# Revision: 4
# Processed by: cddbd v1.5.1PL2 Copyright (c) Steve Scherf et al.
# Submitted via: CDex 1.51
#
DISCID=1e030303
DTITLE=河合みわこ - ピストル
DYEAR=1995
DGENRE=JPop
TTITLE0=ピストル
TTITLE1=涙の理由(わけ)
TTITLE2=Help Me (LESS VOCAL)
EXTD=YEAR: 19950201
EXTT0=
EXTT1=
EXTT2=
PLAYORDER=
